<svg xmlns="http://www.w3.org/2000/svg" viewBox="0 0 228.99 153.95">
        <path d="M149.08 43.41c0-.25.32-.2.51-.26 0 .25-.32.2-.51.26ZM148.31 43.67c0-.25.32-.2.52-.26 0 .25-.32.2-.52.26ZM148.05 43.67c-2.81 1.16-7.7 1.27-11.35.77-.44.1-.49-.2-.52-.52 3.3-.25 8.3.86 11.87-.26ZM149.08 15.03c1.15.05-.98 1.87 0 0Z" style="fill:#fff"/>
        <path d="M150.97 94.32c-.34-1.1-1.2-1.69-1.63-2.71-2.54-3.15-5.05-6.33-7.59-9.49-1-1.89-3-2.78-3.53-5.15-.83-.2-.8.47-1.63.27-1.49-2.49-3.67-4.28-5.42-6.51-2.03-3.66-4.52-6.87-7.05-10.03-2.3-3.39-5.5-5.88-7.59-9.48v-3.25c-1.25-3.36-2.08-7.13-3.79-10.03-2.93-6.28-5.9-12.53-9.49-18.16-1.56-3.05-3.99-5.23-5.42-8.4-1.47-1.24-2.82-2.6-4.07-4.07-1.49-.59-2.79-1.36-4.06-2.17-2.89.05-5.27-1.68-8.94-1.62-1.24-.84-3.18-.97-4.34-1.9C74.4 1.56 73.69.19 71.54.26c-.67.69-.9 1.81-1.36 2.71-.1 2.09.2 3.78.81 5.15.24 1.75 1.59 2.38 2.17 3.79 4.99 3.23 11.26 5.18 13.01 11.66-1.06 1.29-2.83 1.86-4.61 2.44-9.32-.53-15.88-3.81-23.85-5.69-1.25-3.9-3.18-7.12-4.88-10.57-.99-1.54-1.67-3.39-2.98-4.61-.26-1.17-1.41-2.19-1.9-2.71-.59-.63-.27-1.83-1.09-2.17-1.76-.79-2.9.46-4.33 0-.4.69-1.65.53-1.9 1.36-.52.65-1.93.41-1.9 1.63-.33.47.21 1.8 0 2.98 1.08 2.72 1.76 5.83 3.25 8.13-.04.96 1.3 1.93.81 2.44-1.21-.68-2.55-1.24-3.52-2.17-.66-2.23-1.83-4.4-2.98-6.24-.55-.87-1.24-1.9-1.9-2.71-.73-.9-1.37-2.11-2.71-2.17-.89-.56-2.09.51-3.25.54-.46.81-.92 1.61-1.35 2.44-.36 1.37.81 2.6 0 3.52-4-.88-6.99-2.77-11.93-2.71-.48.6-1.68.48-2.17.81-.54.37-.52.97-.81 1.35-.38.49-.9.67-1.08 1.09-.46 1.06-.43 2.13-.54 2.98-2.26-1.3-5.8-.58-8.13.27-1.28 1.34-2.23 3.01-2.44 5.42 1.55 3.06 4.53 4.69 6.51 7.32-2.37.62-3.21 2.76-2.98 5.96 1.28 2.97 4.08 4.42 5.96 6.78.89.47 1.28 1.43 2.17 1.9.48.24.84.61 1.09 1.08.16.24 1.46.66.81.81-3.58-.33-5.3 1.21-5.96 3.79.17 1.91 1.64 2.52 2.17 4.07 5.88 4.24 11.66 8.57 18.7 11.66.43 3.1 1.91 5.14 2.71 7.86.64 2.98 1.88 5.35 2.44 8.4 3.44 6.77 7.63 12.79 11.93 18.7 1.99 1.26 3.34 3.17 5.15 4.61 2.09.45 3.75 1.31 5.15 2.44 1.24 1.47 1.84 3.57 2.44 5.69.77.94 1.54 2.02 2.17 2.98.36.55.5 1.16.81 1.63.36.53.94.84 1.36 1.36.19.23.09.55.27.81.56.81 1.55 1.28 2.17 1.9.09.09-.08.43 0 .54.02.03.5.24.54.27.8.71 1.41 1.31 2.17 1.9 1.02 1.32 2.55 2.15 3.25 3.79-1.64 1.8-3.63 3.24-5.42 4.88-1.89 1.63-4.35 2.69-5.15 5.42 2.1 3.42 3.99 7.03 6.23 10.3 2.55 2.96 4.56 6.46 8.68 7.86 3.23-1.2 6.39-2.46 8.94-4.34 1.31-.86 2.59-1.75 3.79-2.71 1.62-.64 2.7-1.82 4.07-2.71 3.87-1.55 6.32-4.52 8.95-7.32 2.74-2.68 5.34-5.5 7.86-8.4 1.27.9 2.18 2.15 3.8 2.71 1.49-.76 2.49-2.03 4.34-2.44 1.3-.95 2.57-1.95 4.07-2.71 2.46-2.06 5.21-3.82 7.59-5.96 4.92-4.21 10.06-8.18 14.36-13.01 1.22-.23 1.61-1.28 2.71-1.63 1.21-1.41 2.54-2.71 3.8-4.07.67-.69 1.07-1.65 1.9-2.17.18-1.17 1.6-1.11 1.36-2.71-.25-1.11-1.52-1.19-1.9-2.17ZM116.01 8.94c-.21.06-.32.23-.27.54 1.49 2.85 3.06 5.62 4.34 8.67.51 1.66.92 3.41 1.36 5.15.05 1.03.24 1.93.54 2.71-.22.76.38.7.27 1.36.72-.09-.25 1.52.81 1.08 1.31-.77.65-3.51.81-5.42-1.57-5.39-3.14-10.77-6.77-14.09-.4-.32-.68-.32-1.08 0ZM126.84 12.47c-.52-.77-1.15-1.76-2.17-1.9h-.54c-.08.37-.39.52-.27 1.09 1.04 2.3 1.9 4.79 2.98 7.04.13 1.49.62 2.63.81 4.07-.03.84.33 1.29.54 1.9.23.67-.07 1.87.81 1.9 1.55-.08 1.32-1.93 1.63-3.25-.01-.89-.46-1.35-.27-2.44-1.34-2.68-2.03-6.22-3.52-8.4ZM111.13 14.63c.02.74-.45.55 0 1.08 1.14 1.93 2.42 3.73 3.52 5.69.32.89.85 2.19 1.36 3.25.49 1.04.81 2.84 1.9 2.44.95-6.02-3.01-9.46-5.96-12.47h-.81ZM21.41 86.19c.44.44.83.11 1.08 0 .31-1-.8-1.96-1.36-2.98-.61-1.13-.92-2.59-1.9-3.25-.9-2.54-2.35-4.51-2.98-7.31-.78-.12-.64-1.17-1.36-1.36 0 .54-.74.34-.54 1.08v2.44c.59 3.2 2.15 5.44 3.52 7.86.87.39 1.37 1.46 2.17 2.17.41.37.94.51 1.35.81.09.06-.08.46 0 .54ZM9.76 75.62c-.02.43-.69.21-.54.81.16 3.73 1.73 6.04 3.25 8.4.69 1.21 1.38 2.41 2.44 3.25 1.01.98 1.5 2.48 3.52 2.44.82-1.55-1.01-2.53-1.36-3.79-2.69-3.09-4.74-6.82-6.51-10.84-.35-.02-.37-.35-.81-.27ZM5.69 79.68c-.11.46-.35-.06-.81 0-.27.36-.45.82-.81 1.09.12.87.52 1.47.54 2.44 1.79 2.64 3.55 5.31 5.69 7.59 1.17 0 .91 1.44 2.44 1.09.32-1.07.12-1.21-.27-1.63-.2-.22-.09-.54-.27-.81-.47-.71-1.37-1.27-1.9-1.9-1.19-1.4-2.12-2.7-2.98-4.34-.52-1.2-.72-2.71-1.63-3.52Z" style="fill:#391616"/>
        <path d="M47.97 5.42c2.44 4.7 4.57 9.7 7.32 14.09-1.18.45-3.03-.76-4.88-.54-1.29-.61-3.17-.63-4.61-1.09-1.3-4.57-3.65-8.09-4.88-12.74.35-1.64 1.4-2.58 2.44-3.52.44.43.61-.11 1.08 0 1.63.37 2.37 2.66 3.52 3.79ZM75.62 4.34c1.19 0 1.6.75 2.71.81-.32.5-.71.92-1.09 1.36-1.47.21-1.31-1.22-1.63-2.17ZM37.13 13.55c-1.17.53-2.69-.92-4.07-1.08-1.15-.65-2.42-1.19-3.79-1.63-.15-1.47-.71-2.54-.54-4.33.47-.61 1.62-.54 2.17-1.08 3.04 1.74 4.12 5.46 6.23 8.13ZM14.1 10.84c1.17.73 2.2 1.6 3.52 2.17-.2.62-.24 1.39-.54 1.9-1.24-.39-2.15-1.1-3.52-1.36-.12-1.2.19-1.97.54-2.71ZM3.79 15.45c1.29.88 2.37 1.97 3.79 2.71-.49.77-1.33 1.2-1.08 2.71-1.78-.47-3.09-1.43-4.07-2.71.26-1.1.72-1.99 1.35-2.71ZM12.2 31.71c-.46.89-1.57 1.14-1.36 2.71-1.88-.74-3.78-1.46-4.88-2.98.26-1.46.9-2.54 2.17-2.98.84.25 1.08 1.08 1.63 1.63 1.05.3 1.39 1.32 2.44 1.63ZM11.11 46.35h.81c.92 1.2 4.08 1.46 2.98 3.79-1.77-.22-2.6-1.38-4.07-1.9-.13-.85.49-.96.27-1.9ZM27.65 56.92c.45-.04.45 1.67 0 1.63-1.24-.01.4-.77 0-1.63ZM31.98 63.69c.32-.04.48.06.54.27 8.95 2.62 15.35 7.78 23.58 11.11 3.67 2.11 9.02 2.54 12.74 4.61 6.1 1.52 11.93 4.03 19.79 2.98.91 2.52.49 6.38 1.35 8.94.56 2.79 1.39 5.3 2.71 7.32 1.82 4.87 5.09 8.29 5.42 14.64-3.62 2.62-8.27 4.2-11.93 6.77-1.82 1.26-3.61 2.54-5.42 3.8-1.93 1.14-3.21 2.93-5.69 3.52-.44-1.46-1.05-2.74-1.9-3.79-2.43-3.08-5.21-5.81-8.4-8.13-.56-1.16-1.36-2.08-2.17-2.98-1.58-4.2-3.49-8.07-6.24-11.11-2.35-1.08-4.54-2.33-6.78-3.52-2.3-2.4-4.28-5.11-6.23-7.86-2.09-2.61-3.61-5.79-5.69-8.4-1.79-5.8-4.11-11.07-5.42-17.35-.32-.04-.23-.49-.27-.81Zm18.97 28.46c-.67-.67-1.21-1.41-1.9-2.17a73.14 73.14 0 0 1-2.98-3.52c-1.01-1.28-1.93-2.47-2.71-3.79-1.38-1.51-2.42-3.36-3.53-5.15-.25-.48-.65-.79-.81-1.35 0-.72-1.01-.95-.27-.27.05 1.39.98 1.91 1.09 3.25 1.96 3.73 3.88 7.5 6.77 10.3 1.02 1.87 2.85 2.93 4.07 4.61 1.78 1.11 2.99 2.79 5.42 3.25-1.14-2.29-3.44-3.44-5.15-5.15Zm27.38.81c-5.31-.34-8.02 1.92-11.11 3.8-.9 1.09-1.61 2.36-2.71 3.25-1.05.76-2.68.93-4.61.81.33 1.83 3.21 1.33 4.88 1.08.57-.43 1.1-.88 1.9-1.08 1.5-2.39 3.82-3.95 6.78-4.88.64.44 1.57.6 2.44.81h4.07c.35-.37 1.18-.27 1.9-.27.85-.78 2.64-.61 2.71-2.17-1.66-.87-4.58-.48-6.23-1.35ZM137.69 81.04c.68.41.95 1.22 1.35 1.9-2.32 4.72-5.99 8.1-8.94 12.2-4.36 3.41-8.48 7.06-12.74 10.57-2.34 1.54-4.81 2.96-7.05 4.61-1.86 1.03-3.52 2.27-5.15 3.52-.57.6-1.06.6-1.63 0-.76-1.82 1.91-2.37 2.71-3.52 3.71-2.88 7.98-5.21 11.65-8.13 4.7-4.07 8.96-8.56 13.82-12.47 1.9-2.71 3.88-5.34 5.96-7.86v-.81Z" style="fill:#fff"/>
        <path d="M150.15 96.22c-.95.5-1.13 1.76-2.17 2.17-.73.71-1.96.93-2.71 1.63-1.54 1.35-3.3 2.48-4.61 4.07-3.14 2.55-6.39 5-9.21 7.86-1.89 1-3.02 2.77-4.88 3.79-1.27 1.53-2.97 2.63-4.34 4.07-3.2 2.49-5.5 5.88-8.94 8.13-1.43-2.1-3.22-3.83-4.34-6.23-.9-.9-1.63-1.98-2.17-3.25-.78-.93-1.6-1.83-1.9-3.25 6.41-4.34 13.39-8.11 18.97-13.28 2.93-2.49 5.96-4.88 8.67-7.59.98-1.73 2.56-2.86 3.8-4.34 1.27-1.35 2.12-3.12 3.52-4.34-.08-.44.26-.46.27-.81.44-.08.47.26.81.27 1.18 2.25 3.16 3.7 4.34 5.96 1.14.58 1.6 1.83 2.44 2.71.8.83 1.95 1.3 2.44 2.44ZM116 121.7c.12-4.91-2.24-7.34-5.96-8.4-.97.2-1.72.63-1.9 1.63 0 1.98 1.33 2.65 1.62 4.34 1.4 1.13 2.08 2.98 3.25 4.34 1.96.33 2.37-.89 2.98-1.89Z" style="fill:#604a98"/>
        <path d="M109.23 103.26c.36.1.43.48.81.54-.12.87-1.06.93-1.63 1.36-.48.51-1.14.84-1.63 1.36-1.21.69-2.3 1.49-3.25 2.44-.77-.69.98-1.17 1.08-1.9.66-.43 1.2-.97 1.63-1.63 1.16-.11 1.33-1.2 2.44-1.36.09-.36.48-.42.54-.81ZM109.77 115.46c2.18.35 3 2.06 3.53 4.07-1.61-.92-2.68-2.38-3.53-4.07Z" style="fill:#fff"/>
        <path d="M100.55 116.27c0 1.54-1.47 1.6-1.9 2.71-1.1.43-1.66 1.41-2.71 1.9-1.65 1.33-3.26 2.7-5.15 3.79-1.65 1.33-3.75 2.22-5.42 3.52-1.69 1.29-4.09 1.87-5.69 3.25 1.88.61 3.88-1 5.42-1.63 1.64-.89 3.16-1.9 4.88-2.71 3.1-1.87 5.82-4.12 8.68-6.24 1.28-.7 1.74-2.23 3.25-2.71 1.42 2.56 3.42 4.53 4.88 7.05-.63 2.17-2.73 2.88-3.79 4.61-3.91 2.14-6.58 5.53-10.03 8.13-2.99 3.07-6.44 5.67-9.21 8.95-3.05 1.56-5.51 3.7-8.67 5.15-.52-1.21-1.34-2.24-2.17-3.25-2.29-2.82-5.07-5.68-6.77-9.49.69-.12 1.25-.38 1.62-.82.33 1.93 1.46 3.06 2.44 4.34.85 1.41 2.17 2.35 2.98 3.8 1.14.3 1.44 1.45 3.25 1.08.64-.09.61-.84 1.08-1.08-.11-2.15-.71-3.81-1.63-5.15-.7-.93-1.51-1.74-2.44-2.44-.18-.63-.9-.72-1.08-1.35-.39-.43-1.41-.21-1.35-1.09 1.6-.75 3.18-1.52 4.34-2.71-2.02-.57-3.96 1.27-5.69 1.9-1.64.55-3.37 3.21-5.15 1.9.04-1.59 2.09-1.16 2.71-2.17 1.44-.19 2.19-1.06 3.52-1.36 2.08-1.18 4.25-2.25 5.69-4.06 2.99-.83 5.26-2.56 7.59-4.34.22-.17.55-.09.81-.27.4-.28.69-.82 1.08-1.09.39-.26.96-.29 1.35-.54 3.42-2.14 6.74-4.43 10.57-6.23.64-.08.5-.94 1.36-.81.09-.36.47-.42.54-.81.44-.07.47.26.81.27Z" style="fill:#604a98"/>
        <path d="M73.18 128.74c-.8 1.82-3.09 2.15-4.34 3.52-1.66.87-2.81 2.25-4.88 2.71 2.78-2.19 5.58-4.35 8.4-6.5.44-.08.46.26.81.27ZM70.47 140.4c1.01-.55 1.68 1.56 2.71 1.9-.05.68.42.85.81 1.08-1.11.48-1.86-1.75-2.98-2.17 0-.46-.2-.7-.54-.81ZM51.77 33.07c-.05-1.58-1.06-2.2-2.98-1.9-1.07-1.08-2.78-1.11-4.34-1.63-1.4-.46-2.82-1.14-4.06-1.63-2.91-.89-4.87-2.72-7.86-3.52-2.54-1.38-5.34-2.26-7.86-3.52-2.53-1.27-4.86-2.82-7.59-3.79.33-.39 1.04-.41 1.36-.82-.25-1.96 1.38-2.05 1.63-3.52-.05-1.13-1.4-.95-1.9-1.63-.4-.68-1.22-.95-1.9-1.36 4.03-.51 7.52 1.87 10.57 3.25 3.26 1.44 6.44 2.96 10.03 4.07-.34.75-1.39.78-1.9 1.36-.69 1.6-2.2 3.72-1.36 5.96 1.78-.12 1.78-2.01 2.44-3.25.88-.93 1.29-2.33 1.9-3.52 2.89 1.63 6.88 2.16 10.3 3.25 7.09 1.94 13.93 4.14 20.87 6.24 3.83.69 7.88 1.15 11.11 2.44 5.27-.61 8.41-3.34 9.49-8.13-.58-1.41-2.12-1.86-2.44-3.53-2.29-1.87-3.92-4.39-7.59-4.88-1.61-1.73-3.79-2.9-5.42-4.61-.54-1.63-1.59-2.74-1.63-4.88.7.84.79 1.83 1.35 2.71.81 1.24 1.96 1.96 2.98 2.98 1.58-.5 2.32-1.83 2.98-3.25 2.54.35 4.27 1.51 7.32 1.35 1.27.02-.32.62-.27 1.08-.55.26-.58 1.04-.54 1.9 1.63.8 2.35-2.78 4.34-1.63-.38 1.16-2.08.99-2.17 2.44 1.24.78 2.65-.59 3.52-1.08 4.58 4 7.56 9.6 10.57 15.18 3.01 5.58 5.64 11.52 9.22 16.53.99 2.56 1.53 6.3 1.63 8.94-.11.83.72 1.26 1.08 1.9.33.57.42 1.32.81 1.9.38.57.91 1.02 1.35 1.62.38.51.72 1.15 1.09 1.63 1.19 1.56 2.56 2.98 3.8 4.61 1.11 1.47 2.37 3.2 3.52 4.88.22.32.34.77.54 1.09.06.1.5.18.54.27.06.14-.08.42 0 .54.07.1.5.18.54.27.06.14-.08.42 0 .54.07.1.5.18.54.27.06.14-.08.42 0 .54.36.55 1 1.1 1.36 1.63 1.01 1.47 1.98 3.27 3.25 4.88.61 1.2 2.05 1.56 2.44 2.98-1.69 1.74-3.14 3.73-4.61 5.69-.83.34-1.42.92-2.17 1.36-1.56.97-2.29 2.77-4.06 3.52-.47 1.35-1.79 2.06-2.71 2.98-2.56 2.56-5.34 5.42-8.13 8.13-1.55-.35-1.71-2.09-3.25-2.44-.79-1.02-1.69-1.92-2.71-2.71-3.65-5.12-7.84-9.69-10.84-15.45-.88-.12-1.07-.91-1.63-1.36-4.21-.85-9.78-.34-14.36-.81-.17-.55-1.27-.18-1.35-.81-4.81-.65-9.43-1.77-13.82-2.98-2.2-.6-4.48-1.12-6.5-1.9-1.96-.75-3.57-1.99-5.42-2.71-6.01-5.11-14.38-7.85-22.49-10.84-.54-1.87.1-3.29 0-5.42-.76-.63-1.62.39-1.9 1.08-.74-.26.26-2.24-.81-2.17-1.81.18-1.18 2.79-2.17 3.79-.74.48-1.73-.68-2.71-.81-.78-.49-1.82-.71-2.44-1.35-1.74-.79-3.29-1.77-4.61-2.98.33-1.48 1.1-2.51 1.9-3.52-.73-.99-2.09-1.35-2.98-2.17.21-.45 1.31.48 1.9.54.69.21 1.53.27 1.9.81 1.48.33 2.31 1.3 3.79 1.63 2.43 1.18 5.07 2.16 7.32 3.52.89.01 1.35.46 2.44.27 2.53 1.71 6.96 1.53 10.03 2.71 0 .26.33.21.54.27 1.24 1.47 2.6 2.82 4.06 4.07.69-.22.69-1.11 1.09-1.63.12-1.02-.53-1.27-.82-1.9-3.26-3.15-8.79-4.04-13.55-5.69-5.35-.97-8.76-3.88-13.28-5.69-3.54-2.87-6.84-5.99-10.57-8.67.46-.79.99.61 1.9.27.74-.26.62-1.37.81-2.17.79-.57 1.05-1.65 2.17-1.9-.68-1.31-1.67-2.31-2.98-2.98 1.06-1.04 1.44.89 2.44.81.36.9 1.59.94 1.9 1.9 1.65.79 2.86 2.02 4.34 2.98 3.06 1.9 6.06 3.88 9.76 5.15-.64 1.35-.89 3.09-1.08 4.88-.95-.97.65-2.81-.27-3.79-1.76.23-1.28 2.69-1.35 4.61.33.48 1.57.05 1.08 1.35 2.61-.55 2.57-3.75 2.71-6.77 4.28 1.41 7.78 3.61 12.74 4.34 1.2.88 1.96 2.2 3.52 2.71 1.85-1.4-.99-3.45-2.17-4.34h-1.62c-2.57-1.4-5.62-2.33-8.67-3.25-2.33-1.56-5.26-2.51-7.59-4.07.55-1.98 2.02-3.04 1.9-5.69-2.17.46-2.66 2.58-2.98 4.88-.35-.3-2.01-.66-1.36-1.08.47-.53.47-1.52.81-2.17.16-1.45 1.52-2.91 1.09-4.07-1.53-.08-1.5 1.4-2.44 1.9-.08 1.45-1.08 1.99-.81 3.79-5.64-3.75-11.53-7.26-17.07-11.11.25-.74.85.38 1.63 0 1.24-1.01.42-4.1 1.63-5.15-.51-.93-1.66-1.23-2.44-1.9-.52-.19.29-.42.27 0h1.08c.64.09 1.02.43 1.9.27 2.31 1.49 4.84 2.75 7.05 4.34 2.71.99 4.57 2.84 7.86 3.25 3.56 1.86 7.04 3.58 10.57 5.42 3.49 1.82 7.42 3.06 11.93 3.8.69 1.06 3.04.99 4.07.27ZM21.96 13.01c-.13.86.49.96.27 1.9-.53-.08-.54.37-.81.54.15.84-.07 2.06.81 2.17 1.22-.73 1.51-4.17.54-5.42.19.73-.56.52-.81.81Zm16.26 5.96c-.98 1.46-2.24 2.64-2.44 4.88 1.06.25 1.69-1.16 1.9-1.63.04-.09.48-.16.54-.27.62-1.08.54-1.79.81-2.98h-.81ZM61.8 30.9c1.16 1 2.59 1.75 4.06 2.44 1.26.6 3.04 1.95 4.61 1.36-.24-2.1-2.19-2.51-3.52-3.52-1.87-.48-2.93-1.77-5.15-1.9h-.54c-.29 1.01.67.77.54 1.63Zm-32.26 5.69c2.04-.13 1.65-2.69 2.17-4.34-.35-.01-.37-.35-.81-.27-.62 1.33-2.13 2.74-1.36 4.61ZM26.56 47.7v-6.5c-.35-.02-.38-.35-.81-.27-1.34 1.34-1.88 6.5.81 6.77Zm38.76-2.44c-2.33-1.02-4.67-2.02-7.32-2.71-.37 0-.6.13-.81.27v.81c1.03 1.32 2.69 2.01 4.61 2.44 1.31.75 3.89 1.63 5.42.54-.11-.98-1.34-.83-1.9-1.36Zm-10.03 10.3c-.01.37.13.59.27.81 2.42.55 5.04 3.23 7.59 1.9-1.62-1.74-5.01-3.1-7.86-2.71Zm.54 11.65c2.08 1.31 6.74 1.85 9.49.82-.21-1.69-2.49-1.31-4.34-1.36-1.42-.38-2.81-.8-4.61-.81h-.54v1.35Zm55.56 2.17c-.35-.01-.37-.35-.81-.27-1.02 1.06-1.84 2.32-2.98 3.25.1 1.45-1.34 1.89-.81 2.98 3.17-.42 5.47-3.12 4.61-5.96Zm-14.63 8.13c-2.22-.66-4.86-1.1-7.59-1.08-.85.05-.91.89-1.9.81-4.85-.21-9.16-.95-13.55-1.63-.39-.42-1.39-.24-2.17-.27-.05-.4-.66-.25-1.08-.27-.06-.81-1.13.26 0 0 6.46 3.3 16.57 2.94 25.48 3.79 1.81.9 3.95 1.47 6.24 1.9-.92-1.98-3.26-2.62-5.42-3.25Z" style="fill:#fff"/>
        <path d="M91.34 82.93c.6-.49 1.75.77 2.71.82 2.68 2.56 3.9 6.58 6.23 9.48 1 1.62 2.21 3.03 3.52 4.34 1.24 1.24 2.95 2.19 3.52 4.07-2.78 1.74-5.75 3.28-7.32 6.23-.71-.65-.68-2.03-1.09-2.98-1.08-2.18-2.18-4.32-3.53-6.23-.55-3.33-1.7-6.07-2.71-8.94.01-2.72-.56-4.86-1.35-6.78Z" style="fill:#fff"/>
        <path d="M129.5 51.58c-.37-.01-.67-.09-.89-.23-.21-.16-.38-.31-.5-.45s-.21-.27-.26-.41a1.14 1.14 0 0 1-.07-.41c0-.14.01-.25.04-.34.02-.08.05-.2.09-.34.08-.98.74-2.43 1.98-4.35.04-.08.07-.19.11-.33l.9-2.43c.49-1.45 1.08-3.13 1.77-5.02 1.04-2.97 1.89-5.19 2.57-6.64.21-.44.38-.79.53-1.04.15-.25.35-.54.6-.88.25-.34.54-.6.87-.79.32-.18.69-.27 1.1-.27.74-.03 2.26.36 4.54 1.17 2.05.77 3.81 1.34 5.29 1.71l2.27.54c.36.11.65.33.86.66s.27.7.18 1.08c-.09.39-.3.69-.66.9-.36.22-.71.27-1.08.17l-2.27-.54c-1.55-.41-3.41-1.01-5.58-1.79-1.54-.56-2.64-.9-3.28-1.01-.22.28-.48.71-.75 1.31-.64 1.38-1.47 3.5-2.49 6.35-.24.71-.43 1.27-.59 1.67 1.51-.72 3.03-.65 4.56.22 1.45.83 2.45 1.95 3 3.35.51 1.35.69 2.56.54 3.63-.2 1.3-1.29 2.49-3.28 3.56-1.71.95-3.31 1.53-4.81 1.75-1.52.21-2.79.17-3.8-.11-.7-.2-1.19-.43-1.48-.69Zm3-5.21c-.39 1.05-.72 1.92-.97 2.59.21.16.37.33.48.51.72.15 1.51.16 2.35.05 1.16-.19 2.46-.66 3.89-1.42.43-.24.8-.48 1.1-.72.3-.24.49-.42.55-.53.07-.11.11-.18.12-.21.07-.57-.05-1.28-.39-2.13-.3-.78-.88-1.41-1.73-1.9-.68-.38-1.33-.41-1.95-.1-.43.24-.93.67-1.51 1.29-.55.57-1.13 1.3-1.73 2.19-.06.13-.14.25-.22.37ZM144.26 66.12c.21.57.11 1.06-.31 1.47l-.41.47s-.09.05-.15.12c-.06.07-.19.16-.37.28-.18.12-.36.2-.54.25-.18.04-.4 0-.65-.14s-.48-.37-.67-.71c-.29-.46-.43-.86-.41-1.21.02-.35.19-.76.5-1.22.31-.46.48-.71.5-.76.67-1.5 1.83-4.23 3.5-8.21.36-.85.69-1.66.99-2.44-.28-.22-.44-.52-.49-.89-.05-.37.02-.7.22-.99l.78-1.16c.36-.5.79-1.01 1.29-1.54.34-.86.62-1.64.86-2.36l1.17-3.54c.13-.35.38-.62.73-.8.35-.18.72-.21 1.09-.09.37.12.65.36.83.72.18.36.22.73.1 1.12l-.71 2.04c.74-.35 1.57-.69 2.52-1.01 1.22-.44 2.36-.58 3.42-.4 1.06.18 2 .71 2.82 1.6 1.45 1.66 1.53 4.4.24 8.24-1.27 3.88-3.67 6.16-7.21 6.84-3.54.68-5.83-.02-6.89-2.1-1.21 2.86-2.08 4.91-2.63 6.14-.02.05-.07.14-.13.27Zm4.31-10.16.93 2.29c.37.9 1.66 1.14 3.85.7 2.43-.45 4.11-2.08 5.03-4.88.5-1.48.75-2.68.75-3.6 0-.92-.15-1.54-.44-1.87-.66-.75-1.7-.87-3.11-.36-1.9.67-3.33 1.4-4.3 2.18-.26.23-.52.44-.77.64-.55 1.45-1.2 3.08-1.95 4.89ZM177.62 57.38c-.01.09-.05.25-.12.47l.29 2.23c.04.4-.07.75-.31 1.07-.24.32-.55.51-.94.58-.15 0-.32-.02-.5-.04-.6 1.75-1.04 3.62-1.33 5.61l-.57 3.77c-.08.38-.28.69-.6.93-.32.25-.67.34-1.05.27s-.7-.26-.94-.58c-.25-.32-.34-.68-.29-1.06l.57-3.77c.09-.59.19-1.19.32-1.8-.78.72-1.65 1.39-2.6 2.02-1.22.86-2.42 1.25-3.59 1.18-1.17-.07-2.19-.67-3.06-1.81-.24-.37-.47-.79-.69-1.27-1.32-3.15-.07-6.31 3.75-9.47 1.87-1.5 3.45-2.56 4.74-3.18 1.29-.62 2.46-.71 3.53-.28 1.53.65 2.53 1.94 3 3.87l.4 1.28Zm-3.13-.13c-.2-1.27-.65-2.04-1.34-2.33-.1-.05-.34-.01-.72.12-.38.13-1 .44-1.86.94-.87.5-1.79 1.15-2.77 1.96-2.73 2.25-3.71 4.28-2.94 6.09a4 4 0 0 0 .41.76c.2.44.5.68.89.7.39.02.98-.24 1.77-.79 2.23-1.53 3.91-3.18 5.03-4.98.69-1.07 1.2-1.9 1.53-2.47ZM182.94 60.24c-.04-.4.07-.75.33-1.06.25-.31.57-.49.94-.54l.89-.06c.46-.38.96-.46 1.48-.21.05.02.09.04.12.05 1.73-.11 3.35.33 4.85 1.31.97.64 1.56 1.5 1.77 2.58.21 1.08.11 2.26-.29 3.53-.38 1.09-.99 1.96-1.82 2.62-.83.66-1.8 1.03-2.92 1.11.51.74.82 1.57.94 2.48.15.96 0 1.83-.44 2.62s-1.12 1.34-2.03 1.65c-1.54.52-3.27.36-5.2-.48-.18-.08-.55-.24-1.11-.47-.2.29-.47.48-.81.57-.35.09-.67.07-.98-.08-.37-.17-.62-.45-.76-.83-.14-.38-.12-.75.05-1.12l.17-.25c-.24-.3-.32-.65-.25-1.04s.25-.7.54-.91c.21-.19.47-.29.76-.31.76-1.64 1.87-4.09 3.33-7.34l1.22-2.71c-.48-.26-.74-.63-.76-1.12Zm-1.22 12.51c.31.15.64.3.98.46 1.23.54 2.27.66 3.11.36.29-.08.47-.18.53-.27.06-.1.07-.38.03-.84-.13-.95-.68-1.73-1.66-2.35-.58-.24-1.03-.59-1.32-1.04-.65 1.47-1.21 2.69-1.65 3.65l-.02.04Zm2.82-6.25c.22-.06.45-.09.71-.1s.48 0 .66.02c.18.02.42.06.71.12s.48.09.57.1c.93.12 1.61.05 2.05-.21.44-.26.78-.75 1.03-1.49.27-.86.37-1.48.31-1.88-.07-.4-.27-.71-.61-.93-.94-.63-1.97-.9-3.09-.82l-1.74 3.94c-.19.42-.39.83-.58 1.25ZM209.88 69.86c.35.54.62 1.13.8 1.75.54 1.77.48 3.98-.19 6.62-.66 2.64-1.7 4.6-3.12 5.87-1.46 1.35-3.65 2.01-6.58 1.97-2.94 0-5.2-.84-6.78-2.49-1.56-1.68-2.22-3.79-1.99-6.34.22-2.37 1.02-4.42 2.4-6.16 1.29-1.68 3-3.13 5.12-4.36 1.13-.65 2.08-1.12 2.85-1.43.78-.3 1.5-.44 2.19-.41 1.14.06 2.38.54 3.7 1.44l1.65 1.15c.31.21.51.52.59.92.08.4 0 .77-.25 1.1-.1.14-.24.27-.41.38Zm-9.45-.32c-1.53.97-2.77 2.07-3.73 3.3-1.02 1.3-1.62 2.86-1.8 4.68-.15 1.67.27 3.03 1.25 4.05.99 1.07 2.55 1.6 4.67 1.61 2.17.03 3.72-.37 4.65-1.21.95-.89 1.7-2.38 2.23-4.47.53-2.1.61-3.79.23-5.08-.33-1.07-.95-1.77-1.87-2.11-1.2-.43-2.21-.6-3.04-.51l-1.52.1c-.4.04-.75-.08-1.07-.36ZM209.38 88.97c.19-.42.51-.71.95-.86.44-.16.87-.14 1.28.05.42.19.7.5.85.92l.06.17c.14.45.11.88-.08 1.29-.19.42-.5.7-.92.85-.42.15-.84.13-1.25-.06-.42-.2-.7-.5-.85-.92l-.06-.17c-.18-.43-.17-.86.02-1.27Zm13.35-27.72c.43-.18.85-.19 1.27-.03.42.16.72.45.9.87s.19.84.03 1.27l-2.31 5.77c-1.58 3.92-3.31 7.67-5.19 11.23l-2.81 5.2c-.19.42-.52.7-.96.84-.45.14-.87.1-1.27-.12-.41-.22-.67-.55-.8-.99-.13-.44-.08-.86.14-1.27l2.77-5.22c1.83-3.46 3.51-7.08 5.02-10.87l2.33-5.81c.16-.4.45-.69.88-.87Z" style="fill:#391616"/>
</svg>
